<svg width="23" height="23" viewBox="0 0 23 23" fill="none" xmlns="http://www.w3.org/2000/svg">
<path d="M4.79052 12.4555H16.1538L12.6758 16.6329C12.5953 16.7298 12.5347 16.8416 12.4973 16.9619C12.46 17.0822 12.4468 17.2087 12.4583 17.3342C12.4817 17.5875 12.6047 17.8212 12.8004 17.9838C12.9961 18.1465 13.2483 18.2247 13.5017 18.2014C13.755 18.178 13.9887 18.0549 14.1513 17.8593L18.9419 12.1106C18.9742 12.0648 19.003 12.0168 19.0282 11.9668C19.0282 11.9189 19.0761 11.8902 19.0952 11.8423C19.1387 11.7324 19.1614 11.6155 19.1623 11.4974C19.1614 11.3792 19.1387 11.2623 19.0952 11.1524C19.0952 11.1045 19.0473 11.0758 19.0282 11.0279C19.003 10.9779 18.9742 10.9299 18.9419 10.8842L14.1513 5.13545C14.0613 5.0273 13.9485 4.94032 13.8209 4.8807C13.6934 4.82109 13.5544 4.7903 13.4136 4.79053C13.1897 4.79009 12.9728 4.86806 12.8004 5.0109C12.7034 5.09133 12.6232 5.19011 12.5644 5.30159C12.5056 5.41306 12.4694 5.53504 12.4578 5.66053C12.4463 5.78602 12.4596 5.91256 12.497 6.03291C12.5344 6.15325 12.5952 6.26503 12.6758 6.36185L16.1538 10.5392H4.79052C4.53641 10.5392 4.29271 10.6402 4.11302 10.8199C3.93334 10.9996 3.8324 11.2433 3.8324 11.4974C3.8324 11.7515 3.93334 11.9952 4.11302 12.1749C4.29271 12.3545 4.53641 12.4555 4.79052 12.4555Z" fill="white"/>
</svg>
