<svg width="26" height="26" viewBox="0 0 26 26" fill="none" xmlns="http://www.w3.org/2000/svg">
<path d="M19.4025 5.41667H6.40247L7.81081 4.01917C8.0148 3.81518 8.12941 3.5385 8.12941 3.25001C8.12941 2.96151 8.0148 2.68483 7.81081 2.48084C7.60681 2.27684 7.33013 2.16224 7.04164 2.16224C6.75315 2.16224 6.47647 2.27684 6.27247 2.48084L3.02247 5.73084C2.92094 5.83155 2.84034 5.95137 2.78534 6.08338C2.73034 6.21539 2.70203 6.35699 2.70203 6.50001C2.70203 6.64302 2.73034 6.78462 2.78534 6.91663C2.84034 7.04864 2.92094 7.16846 3.02247 7.26917L6.27247 10.5192C6.37318 10.6207 6.493 10.7013 6.62502 10.7563C6.75703 10.8113 6.89863 10.8396 7.04164 10.8396C7.18465 10.8396 7.32625 10.8113 7.45827 10.7563C7.59028 10.7013 7.7101 10.6207 7.81081 10.5192C7.91235 10.4185 7.99294 10.2986 8.04794 10.1666C8.10294 10.0346 8.13126 9.89302 8.13126 9.75001C8.13126 9.60699 8.10294 9.46539 8.04794 9.33338C7.99294 9.20137 7.91235 9.08155 7.81081 8.98084L6.40247 7.58334H19.4025C19.6244 7.57903 19.845 7.61849 20.0517 7.69946C20.2584 7.78043 20.4471 7.90133 20.6071 8.05525C20.7671 8.20918 20.8951 8.3931 20.984 8.59653C21.0728 8.79995 21.1207 9.01889 21.125 9.24084V11.9167C21.125 12.204 21.2391 12.4795 21.4423 12.6827C21.6454 12.8859 21.921 13 22.2083 13C22.4956 13 22.7712 12.8859 22.9743 12.6827C23.1775 12.4795 23.2916 12.204 23.2916 11.9167V9.24084C23.2874 8.73437 23.1834 8.2337 22.9857 7.76741C22.7879 7.30112 22.5003 6.87835 22.1391 6.52324C21.778 6.16813 21.3504 5.88764 20.8809 5.69777C20.4113 5.5079 19.9089 5.41239 19.4025 5.41667Z" fill="#273863"/>
<path d="M19.7275 15.4808C19.5235 15.2768 19.2469 15.1622 18.9584 15.1622C18.6699 15.1622 18.3932 15.2768 18.1892 15.4808C17.9852 15.6848 17.8706 15.9615 17.8706 16.25C17.8706 16.5385 17.9852 16.8152 18.1892 17.0192L19.5975 18.4167H6.59754C6.3756 18.421 6.15498 18.3815 5.94828 18.3005C5.74159 18.2196 5.55288 18.0987 5.39292 17.9448C5.23296 17.7908 5.1049 17.6069 5.01604 17.4035C4.92718 17.2001 4.87927 16.9811 4.87504 16.7592V14.0833C4.87504 13.796 4.7609 13.5205 4.55774 13.3173C4.35458 13.1141 4.07903 13 3.79171 13C3.50439 13 3.22884 13.1141 3.02567 13.3173C2.82251 13.5205 2.70837 13.796 2.70837 14.0833V16.7592C2.71262 17.2656 2.81659 17.7663 3.01435 18.2326C3.2121 18.6989 3.49976 19.1217 3.86091 19.4768C4.22205 19.8319 4.64961 20.1124 5.11916 20.3022C5.58872 20.4921 6.09107 20.5876 6.59754 20.5833H19.5975L18.1892 21.9808C18.0877 22.0815 18.0071 22.2014 17.9521 22.3334C17.8971 22.4654 17.8688 22.607 17.8688 22.75C17.8688 22.893 17.8971 23.0346 17.9521 23.1666C18.0071 23.2986 18.0877 23.4185 18.1892 23.5192C18.2899 23.6207 18.4097 23.7013 18.5417 23.7563C18.6738 23.8113 18.8154 23.8396 18.9584 23.8396C19.1014 23.8396 19.243 23.8113 19.375 23.7563C19.507 23.7013 19.6268 23.6207 19.7275 23.5192L22.9775 20.2692C23.0791 20.1685 23.1597 20.0486 23.2147 19.9166C23.2697 19.7846 23.298 19.643 23.298 19.5C23.298 19.357 23.2697 19.2154 23.2147 19.0834C23.1597 18.9514 23.0791 18.8315 22.9775 18.7308L19.7275 15.4808Z" fill="#273863"/>
</svg>
